PathFileType	4	(X/Y/Z)	Patient4_TMGait_0pt6_02_left_42.trc.trc
DataRate	CameraRate	NumFrames	NumMarkers	Units	OrigDataRate	OrigDataStartFrame	OrigNumFrames
82.840236686391	82.840236686391	6	33	mm	82.840236686391	89	       141
Frame#	Time	Sacral			L.Shoulder			Chest			R.Shoulder			Neck			R.ASIS			L.ASIS			R.Thigh.Superior			R.Thigh.Lateral			R.Thigh.Inferior			R.Patella			L.Thigh.Superior			L.Thigh.Lateral			L.Thigh.Inferior			L.Patella			L.Shank.Superior			L.Shank.Lateral			L.Shank.Inferior			R.Shank.Superior			R.Shank.Lateral			R.Shank.Inferior			R.Heel			R.Midfoot.Superior			R.Midfoot.Lateral			R.Toe			L.Heel			L.Midfoot.Lateral			L.Midfoot.Superior			L.Toe			L.Elbow			L.Wrist			R.Elbow			R.Wrist			
		X1	Y1	Z1	X2	Y2	Z2	X3	Y3	Z3	X4	Y4	Z4	X5	Y5	Z5	X6	Y6	Z6	X7	Y7	Z7	X8	Y8	Z8	X9	Y9	Z9	X10	Y10	Z10	X11	Y11	Z11	X12	Y12	Z12	X13	Y13	Z13	X14	Y14	Z14	X15	Y15	Z15	X16	Y16	Z16	X17	Y17	Z17	X18	Y18	Z18	X19	Y19	Z19	X20	Y20	Z20	X21	Y21	Z21	X22	Y22	Z22	X23	Y23	Z23	X24	Y24	Z24	X25	Y25	Z25	X26	Y26	Z26	X27	Y27	Z27	X28	Y28	Z28	X29	Y29	Z29	X30	Y30	Z30	X31	Y31	Z31	X32	Y32	Z32	X33	Y33	Z33	

89	52.352285714286	881.031241021252	1014.771053760729	515.196955688400	1097.171281923069	1429.868506745524	330.157972508620	1191.477077931229	1351.490433886101	491.023476099966	1112.883331245428	1436.599200511397	660.922087072429	1099.856398720427	1489.311985610336	479.579356874786	1109.339817493365	932.229053982964	622.673002429228	1087.388746367325	961.161458811126	349.303946730209	1165.326693480722	746.844833429976	587.855064478698	1096.633619690414	632.698084398609	650.253133474436	1177.150606470117	588.264734133005	567.424451244326	1188.395780119122	499.235392947741	574.506461026250	1116.443186525983	744.886993329529	365.219057264090	1018.172486695683	635.696094558983	306.091779903558	1101.979947770214	545.934561453788	358.275574403709	1091.708917776641	462.317910528175	356.875928675127	1026.266885654046	405.699441726193	354.024413130014	887.616045331123	354.063911847871	308.376036446461	883.741563258424	225.946909275299	367.597768757088	1163.317771860964	409.405292884593	583.743450605014	1097.728672923887	302.366868805236	646.790655886383	1144.907828269723	209.777367813271	583.236001720745	1019.934716283511	42.768507921681	552.365246390536	1190.169094520994	98.127924341518	588.083238909264	1102.994759683090	37.167498429830	627.652323349007	1310.879030485687	47.052954586402	616.593279583555	698.619312576278	143.763534511395	409.574524318419	760.305752380236	100.555607219864	331.822130657815	862.837360985357	123.441131153927	351.100070844797	953.229732164074	32.868132737405	330.210811691660	1071.022533610871	1087.529090367972	192.148504185260	1285.087420977297	938.863170461717	199.032103299694	1007.806339770074	1105.709739602980	788.444873974005	1024.122022508135	843.793776876968	786.628926373712	
90	52.364357142857	880.538723835529	1015.801761800669	518.253792423486	1095.796858761886	1431.357304297103	332.997872625845	1191.467592511649	1352.170926185149	492.709676573467	1114.425044853942	1436.502954784300	663.675933374032	1099.753546709505	1490.120483556138	482.780633575988	1109.383588099608	933.360742059049	624.407069185830	1086.284550076653	961.658879354713	351.250949779788	1162.490955622281	745.745527304031	590.723412722972	1092.098617788889	633.017271744494	652.757621256558	1171.724874342663	587.593863686471	569.630269699598	1181.591862082250	498.757478911064	576.611667121921	1120.847916310388	747.868291784119	368.126917349261	1027.828940235370	636.043644371270	307.389018088544	1114.296406279831	548.282756890615	360.010688190192	1105.229848135028	463.234436739387	357.765205253831	1037.692416508774	406.742144406089	354.954222643417	897.315897270242	360.073287358153	309.183495476223	888.851797002612	232.242186969889	368.176597628330	1156.510246328594	409.260844948950	585.672235666013	1090.639174696211	302.077319703396	648.099284792229	1137.934609102127	209.695956174087	584.295625848377	1012.812128670986	42.784987827267	552.512614494078	1183.189759260071	98.023457972571	588.482202070894	1095.859551708217	37.093797514909	627.802404791908	1303.830234043667	46.555805368739	616.773003109670	700.741524094056	158.515378299623	409.979702976841	760.317212371306	112.255777880990	332.145975388917	864.041999447062	130.001590143489	351.351397646918	949.472426965743	33.123535810963	330.214951954040	1065.894336585022	1088.162336838518	197.102676439157	1270.613142738597	925.728817220244	202.937630949310	1019.610157842557	1102.129858210629	791.907622249632	1048.171755899599	841.207986124872	787.309095154490	
91	52.376428571429	879.910593884837	1016.660137916365	521.077276470284	1094.245284435275	1432.628531661824	335.642756664896	1191.271589019153	1352.668286966665	494.231196672175	1115.775565450015	1436.238153458379	666.253288154630	1099.509853176090	1490.784040014618	485.773116327901	1109.209722762565	934.428154700897	626.117601618751	1085.031302039915	962.029143747974	353.179939782363	1159.651249135241	744.833155823874	593.652388614740	1087.567232453862	633.369445588025	655.267003013362	1166.480179005027	587.025158637690	572.020946144984	1174.969225647456	498.361955817742	578.903665547281	1125.050658349315	751.052416870473	371.192813833983	1037.530380574202	636.833644737459	308.471289481614	1126.430286859461	551.198338401543	361.691815666920	1118.744301452863	464.804874942730	358.564097101111	1049.403731717804	408.260157195158	355.731938786800	907.529428159068	366.197797524361	309.948847694834	894.866450714887	238.765171312733	368.817662506885	1149.877079602845	409.162547868524	587.676586314555	1083.621196587789	301.868268643192	649.436205090811	1131.033991294691	209.661586919633	585.419014419755	1005.655819523472	42.865120255480	552.664568632736	1176.202961553807	97.932587320477	588.911825890061	1088.689351260542	37.041830128675	627.962164080177	1296.754745255203	45.998252228867	616.977127866763	704.276547150541	172.785884808093	410.590791169378	761.842213036005	123.967603354913	332.598972152450	866.496022641584	137.010538285227	351.761289795264	947.316105412268	34.096940743148	330.211266467577	1060.701461909541	1088.565641119965	202.000074980910	1254.911820310776	912.742178125300	206.707683907244	1031.834209897118	1098.681643019706	795.144481632540	1072.919400383499	839.414733681561	787.608013985562	
92	52.388500000000	879.181093954452	1017.355927812079	523.667311264134	1092.562041558162	1433.694994563921	338.089108654928	1190.898961176201	1353.013042849133	495.610766436709	1116.913604063371	1435.856205632160	668.654723579869	1099.148276329349	1491.328012798555	488.540533065556	1108.834010412839	935.444168630349	627.809629425903	1083.627862454546	962.282316439252	355.087563930765	1156.875681353336	744.128324954711	596.631526238755	1083.085958467333	633.748615842463	657.726183025031	1161.483952916055	586.557736390149	574.544896886305	1168.615765295577	498.047289606156	581.306727674518	1128.963955083629	754.429612482945	374.324487355266	1047.028761734243	638.105773237259	309.337860244689	1138.157203330731	554.680443976956	363.221261671866	1132.044419417603	467.055969711314	359.170882172710	1061.228486016716	410.265946309773	356.301571859313	918.078729779838	372.272476624552	310.663017918851	901.796633754460	245.285037959033	369.482605634022	1143.484958149951	409.108482860577	589.703324900712	1076.720198313996	301.760673800066	650.766653535303	1124.231066378186	209.676187834480	586.581185382509	998.469287588978	43.010143836269	552.830448656304	1169.205173761013	97.856311315648	589.360610698522	1081.488728270931	37.014132845904	628.133916156591	1289.652085558492	45.404095725235	617.207055780391	709.254139671736	185.987537070610	411.405328393093	765.008279102814	135.171971855741	333.179236679541	870.340973239636	144.166587491252	352.286895132434	947.119002168425	35.857590996140	330.181992195951	1055.392282320354	1088.754404516033	206.859722213721	1237.968941410521	900.118864812026	210.309948302926	1044.459794442424	1095.436344570497	798.083692269674	1098.244701891359	838.533171720628	787.472676714295	
93	52.400571428571	878.384809113263	1017.909851929221	526.030824907409	1090.791757303494	1434.583173159640	340.342687639059	1190.365527233963	1353.246576832856	496.872977706420	1117.830706253706	1435.416734269497	670.885184683172	1098.689037378703	1491.783433506698	491.079713368919	1108.280606856208	936.420727003522	629.479065340328	1082.093074473220	962.441587128993	356.959316486916	1154.201674369073	743.626152503049	599.635211636287	1078.685883104535	634.146963874893	660.081138231661	1156.768648907842	586.181354540303	577.133979306251	1162.583058542447	497.805859309375	583.736567156509	1132.530844108206	757.982172745554	377.405767358555	1056.097657435563	639.861486108144	309.996566088781	1149.297083254556	558.696590515563	364.502048554900	1144.951203694095	469.982582646718	359.504047201690	1073.018148721994	412.743962666786	356.624465324889	928.812236684681	378.109044868814	311.307982014686	909.655597525939	251.547927908524	370.127731672960	1137.369515300394	409.093505780006	591.693575289039	1069.968181108686	301.765115843688	652.053316540213	1117.539473575645	209.738276405204	587.751182073388	991.260399383207	43.217732032220	553.016378848287	1162.197083481218	97.793686709306	589.814240547591	1074.266637415384	37.011009155052	628.316585315526	1282.525937324600	44.796439497692	617.459779015956	715.682340485855	197.571190481455	412.399811117878	769.907866314870	145.354700585441	333.867161433188	875.701275818914	151.128574103410	352.871153652122	949.198549712030	38.369146384479	330.095792771858	1049.911537792199	1088.772997401680	211.693322111831	1219.797625180636	888.084949665932	213.720924010425	1057.443684507842	1092.483027983106	800.662585081098	1124.016326308557	838.689194826684	786.851713225643	
94	52.412642857143	877.552568707842	1018.350506343866	528.178801597947	1088.975815712990	1435.327784390776	342.415657245450	1189.691425980413	1353.413693645181	498.040802559725	1118.531112152472	1434.979738293837	672.951016108135	1098.148178361283	1492.182655333910	493.397911236589	1107.579724195582	937.366715836108	631.115289401241	1080.463605103376	962.543967535469	358.771945306890	1151.638533452813	743.304159696493	602.616730496342	1074.390560389690	634.556934064382	662.283324452438	1152.338356182670	585.879403884762	579.709816989654	1156.889777261277	497.625672608424	586.108575534198	1135.723438951135	761.683917048208	380.310019320355	1064.549812341350	642.063704748978	310.462553872161	1159.719247365247	563.185707290465	365.452677254975	1157.318793125063	473.548490774458	359.515165313013	1084.651615849335	415.651459326812	356.685500159116	939.610246349312	383.510953496942	311.861600003755	918.452213661765	257.299052831185	370.709409892642	1131.538796069810	409.109285001636	593.588788151844	1063.385927446367	301.881826416978	653.261567013497	1110.962911476574	209.842779047133	588.894939999023	984.038134809769	43.482882482175	553.225048452603	1155.182183068436	97.744198603626	590.260753879429	1067.033409890637	37.031032018364	628.506892024053	1275.381675812260	44.195882634703	617.729416664384	723.550379984765	207.070543213862	413.529504815006	776.594315266516	154.053626953577	334.624456993709	882.672314302645	157.549019542206	353.448600581360	953.798419351867	41.482004928557	329.909406318289	1044.205873212709	1088.688157315391	216.498716728095	1200.447568618174	876.866459629849	216.928095426904	1070.715541555488	1089.919006008761	802.833912821833	1150.091330055265	840.009794300998	785.698737052355	
